<?xml version="1.0" encoding="utf-8"?>
<!-- Uploaded to: SVG Repo, www.svgrepo.com, Generator: SVG Repo Mixer Tools -->
<svg width="800px" height="800px" viewBox="0 0 1024 1024" class="icon"  version="1.1" xmlns="http://www.w3.org/2000/svg"><path d="M993.763 493.538v35c0 13.331-6.04 26.663-18.135 37.137-140.15 121.422-280.35 242.794-420.487 364.219-11.817 10.237-25.814 15.501-42.456 15.501v-35c16.642 0 30.639-5.264 42.456-15.501 140.138-121.425 280.333-242.802 420.487-364.219 12.095-10.474 18.135-23.801 18.135-37.137z" fill="#4E88C7" /><path d="M30.239 528.366v-3.5-1.75-3.5-3.5-1.75-3.5-3.5-1.75-3.5-3.5-1.75-3.5c0 14.708 6.701 29.313 19.037 40.02 138.451 120.064 277.05 239.996 415.562 360.018 13.002 11.262 28.74 16.468 47.853 16.996v35c-19.109-0.528-34.851-5.735-47.853-16.996C326.325 808.382 187.725 688.45 49.276 568.386c-12.337-10.705-19.037-25.312-19.037-40.02z" fill="#4E88C7" /><path d="M510.786 76.601c16.263 0 32.546 5.362 44.946 16.097 139.949 121.188 279.9 242.375 419.819 363.584 24.24 20.995 24.295 53.414 0.078 74.396C835.479 652.1 695.278 773.476 555.141 894.897c-11.816 10.239-25.813 15.502-42.454 15.502-19.109-0.528-34.851-5.734-47.853-16.994C326.322 773.382 187.722 653.45 49.273 533.386c-19.579-16.988-24.959-43.81-11.895-65.252 3.92-6.437 8.669-11.829 14.465-16.85 138.109-119.55 276.18-239.132 414.263-358.717 12.297-10.64 28.479-15.966 44.68-15.966z" fill="#48C0EE" /><path d="M530.123 357.382l-2.742-1.875 2.742-14.924-2.742-1.876c1.401 0.182 1.954 1.196 2.742 1.876l0.222 0.193v16.797a9.428 9.428 0 0 1-0.222-0.191z" fill="#96D5F4" /><path d="M589.657 408.875c-19.846-17.026-39.546-34.197-59.313-51.299v-1.963-1.027-2.127-2.186-2.203-2.184-2.125-2.023-0.963c19.767 17.103 39.467 34.272 59.313 51.3V408.875s0-0.004 0 0zM589.657 408.875v-0.014-0.014-0.014-0.015-0.014-0.014-0.014-0.015-1.95-2.069-2.145-2.186-2.187-2.143-2.068-1.952c0.116 0.099 0.234 0.202 0.351 0.301 1.196 1.025 1.775 1.786 1.775 2.55v16.8c0-0.764-0.578-1.524-1.775-2.55a6.323 6.323 0 0 1-0.351-0.287zM499.59 450.267v12.938c-0.009-50.963-0.009-101.919-0.087-152.872v-16.8c0.081 50.955 0.081 101.909 0.087 152.872v3.862z" fill="#96D5F4" /><path d="M591.781 394.921v16.8c0 0.76-0.572 1.524-1.682 2.559-20.131 18.735-40.109 37.598-60.138 56.41-0.695 0.656-1.411 1.284-2.581 2.349v-16.8c1.17-1.065 1.886-1.692 2.581-2.349 20.028-18.813 40.007-37.676 60.138-56.41 1.11-1.034 1.682-1.798 1.682-2.559z" fill="#96D5F4" /><path d="M527.381 338.708c1.401 0.183 1.954 1.196 2.742 1.877 19.959 17.266 39.846 34.604 59.883 51.792 2.379 2.044 2.317 3.03 0.091 5.106-20.131 18.734-40.109 37.599-60.138 56.41-0.695 0.656-1.41 1.284-2.581 2.349 0.003-39.485 0.003-78.471 0.003-117.534z" fill="#48C0EE" /><path d="M628.859 394.451v16.8c0 1.559-0.819 3.133-2.461 4.681-28.84 27.104-57.619 54.254-86.609 81.237-1.345 1.252-1.953 2.188-1.953 3.057v-16.8c0-0.871 0.608-1.803 1.953-3.057 28.99-26.983 57.772-54.133 86.609-81.236 1.642-1.547 2.461-3.122 2.461-4.682zM496.612 483.935v16.8c0-0.798-0.607-1.629-1.921-2.762-32.286-27.813-64.422-55.765-96.597-83.692-1.91-1.658-2.867-3.33-2.867-4.996v-16.799c0 1.665 0.957 3.339 2.867 4.995 32.175 27.928 64.313 55.88 96.597 83.691 1.314 1.135 1.921 1.966 1.921 2.763zM527.553 527.078c-0.109 0-0.227 0.005-0.353 0.024v-16.8c0.126-0.019 0.243-0.025 0.353-0.025 1.046-0.002 1.381 0.771 1.896 1.21 0.148 0.133 0.298 0.261 0.448 0.389v16.799c-0.15-0.128-0.3-0.26-0.448-0.388-0.512-0.438-0.851-1.212-1.896-1.209z" fill="#96D5F4" /><path d="M529.896 528.681v-16.8c19.92 17.253 39.789 34.564 59.781 51.746 0.002 5.572 0.016 11.143 0 16.714V580.434c-19.991-17.194-39.858-34.499-59.781-51.753z" fill="#96D5F4" /><path d="M589.678 580.426v-0.011-0.012-0.011-0.012-0.012-0.014-0.011-0.011c0.016-5.571 0.002-11.14 0-16.714 0.094 0.086 0.193 0.167 0.29 0.252 1.193 1.022 1.817 1.782 1.815 2.579v16.801c0.002-0.793-0.622-1.554-1.815-2.58a6.463 6.463 0 0 1-0.29-0.244zM395.09 592.147v-16.8c0 1.627 1.002 3.26 3.004 5.001 2.741 2.385 5.463 4.774 8.206 7.159 1.963 1.709 3.849 2.561 5.733 2.561 1.88 0 3.762-0.849 5.717-2.544 25.958-22.521 51.904-45.044 77.859-67.559 1.109-0.961 2.278-1.852 3.981-3.223v16.8c-1.702 1.372-2.871 2.262-3.981 3.223-25.956 22.515-51.901 45.038-77.859 67.559-1.955 1.695-3.837 2.544-5.717 2.544-1.884 0-3.767-0.852-5.733-2.561-2.741-2.385-5.463-4.774-8.206-7.158-2.001-1.742-3.004-3.375-3.004-5.002z" fill="#96D5F4" /><path d="M591.783 566.453v16.8c0 0.731-0.533 1.494-1.643 2.529-20.856 19.39-41.544 38.918-62.94 59.021v-16.8c21.396-20.104 42.084-39.637 62.94-59.021 1.11-1.031 1.643-1.796 1.643-2.529z" fill="#96D5F4" /><path d="M624.985 560.14c5.079 4.41 5.221 6.908 0.464 11.387-37.943 35.667-75.893 71.325-113.822 106.996-1.64 1.545-3.18 2.932-5.897 2.932-4.327-0.241-6.252-1.646-6.192-5.007 0.041-2.197 0.041-4.399 0.041-6.593 0.01-49.407 0.01-98.817 0.01-148.22v-4.885c-1.702 1.37-2.871 2.26-3.981 3.222-25.956 22.515-51.901 45.037-77.858 67.558-1.955 1.695-3.838 2.546-5.718 2.546-1.884 0-3.767-0.854-5.732-2.563-2.741-2.384-5.463-4.773-8.206-7.158-3.962-3.448-4.01-6.47-0.112-9.865 32.176-27.916 64.321-55.869 96.588-83.708 2.52-2.185 2.873-3.232 0.12-5.604-32.286-27.811-64.422-55.763-96.597-83.691-3.79-3.292-3.82-6.622-0.098-9.871 2.839-2.479 5.664-4.96 8.518-7.43 1.846-1.604 3.688-2.41 5.529-2.41 1.844 0 3.693 0.805 5.545 2.417a67836.39 67836.39 0 0 1 77.841 67.576c1.118 0.969 1.884 2.246 2.822 3.379 0.443-0.298 0.887-0.585 1.34-0.874v-3.866c-0.01-50.963-0.01-101.919-0.087-152.872 0-2.533 0.292-4.949 3.174-5.77 0.934-0.266 1.865-0.417 2.788-0.417 1.838 0 3.637 0.597 5.328 2.073 38.415 33.488 76.941 66.878 115.438 100.303 3.447 2.995 3.518 6.261 0.172 9.413-28.84 27.104-57.619 54.253-86.608 81.236-2.901 2.706-2.376 3.919 0.305 6.231 28.368 24.45 56.611 49.004 84.885 73.535z m-34.847 8.842c2.309-2.146 2.13-3.134-0.168-5.104-20.241-17.4-40.352-34.918-60.521-52.387-0.512-0.442-0.848-1.213-1.896-1.213a2.39 2.39 0 0 0-0.354 0.027v117.701c21.401-20.106 42.085-39.634 62.939-59.024m-62.757-230.273v117.532c1.17-1.063 1.884-1.692 2.581-2.347 20.028-18.813 40.007-37.677 60.138-56.412 2.227-2.076 2.288-3.063-0.092-5.104-20.038-17.188-39.926-34.527-59.882-51.793-0.789-0.682-1.344-1.697-2.745-1.876" fill="#ECF7FB" /><path d="M527.553 510.278c1.046-0.002 1.381 0.771 1.896 1.21 20.169 17.468 40.28 34.987 60.521 52.385 2.298 1.975 2.479 2.961 0.172 5.107-20.856 19.387-41.543 38.916-62.939 59.02V510.301c0.123-0.017 0.24-0.023 0.35-0.023z" fill="#48C0EE" /><path d="M628.909 565.966v16.801c0 1.682-1.155 3.385-3.46 5.56-37.943 35.668-75.893 71.325-113.822 106.996-1.64 1.545-3.18 2.932-5.896 2.932v-16.8c2.714 0 4.256-1.387 5.896-2.932 37.93-35.671 75.883-71.329 113.822-106.996 2.305-2.175 3.46-3.88 3.46-5.561zM499.538 693.394v-16.8c0 3.252 1.932 4.621 6.192 4.856v16.8c-4.26-0.235-6.192-1.604-6.192-4.856z" fill="#96D5F4" /></svg>